<svg xmlns="http://www.w3.org/2000/svg" viewBox="0 0 30 23" shape-rendering="crispEdges"><path d="M16,0h1v1h-1v-1z" fill="#322106" fill-opacity="1.000" fill-rule="evenodd"/><path d="M15,1h1v1h-1v-1z" fill="#311e03" fill-opacity="1.000" fill-rule="evenodd"/><path d="M16,1h1v1h-1v-1z" fill="#e28c10" fill-opacity="1.000" fill-rule="evenodd"/><path d="M17,1h1v1h-1v-1z" fill="#372b16" fill-opacity="1.000" fill-rule="evenodd"/><path d="M13,2h1v1h-1v-1z" fill="#342606" fill-opacity="1.000" fill-rule="evenodd"/><path d="M14,2h1v1h-1v-1z" fill="#301a02" fill-opacity="1.000" fill-rule="evenodd"/><path d="M15,2h1v1h-1v-1z" fill="#cc6807" fill-opacity="1.000" fill-rule="evenodd"/><path d="M16,2h1v1h-1v-1z" fill="#f1b85b" fill-opacity="1.000" fill-rule="evenodd"/><path d="M17,2h1v1h-1v-1z" fill="#36260d" fill-opacity="1.000" fill-rule="evenodd"/><path d="M12,3h1v1h-1v-1z" fill="#281d0a" fill-opacity="1.000" fill-rule="evenodd"/><path d="M13,3h1v1h-1v-1z" fill="#ea8f0d" fill-opacity="1.000" fill-rule="evenodd"/><path d="M14,3h1v1h-1v-1z" fill="#fab548" fill-opacity="1.000" fill-rule="evenodd"/><path d="M15,3h1v1h-1v-1z" fill="#cb7b02" fill-opacity="1.000" fill-rule="evenodd"/><path d="M16,3h1v1h-1v-1z" fill="#ce7201" fill-opacity="1.000" fill-rule="evenodd"/><path d="M17,3h1v1h-1v-1z" fill="#cd6f26" fill-opacity="1.000" fill-rule="evenodd"/><path d="M18,3h1v1h-1v-1z" fill="#2d200d" fill-opacity="1.000" fill-rule="evenodd"/><path d="M11,4h1v1h-1v-1z" fill="#221708" fill-opacity="1.000" fill-rule="evenodd"/><path d="M12,4h1v1h-1v-1z" fill="#e68405" fill-opacity="1.000" fill-rule="evenodd"/><path d="M13,4h1v1h-1v-1z" fill="#da7a02" fill-opacity="1.000" fill-rule="evenodd"/><path d="M14,4h1v1h-1v-1z" fill="#da7c05" fill-opacity="1.000" fill-rule="evenodd"/><path d="M15,4h1v1h-1v-1z" fill="#d58101" fill-opacity="1.000" fill-rule="evenodd"/><path d="M16,4h1v1h-1v-1z" fill="#ca7104" fill-opacity="1.000" fill-rule="evenodd"/><path d="M17,4h1v1h-1v-1z" fill="#c86709" fill-opacity="1.000" fill-rule="evenodd"/><path d="M18,4h1v1h-1v-1z" fill="#facb78" fill-opacity="1.000" fill-rule="evenodd"/><path d="M19,4h1v1h-1v-1z" fill="#352c1e" fill-opacity="1.000" fill-rule="evenodd"/><path d="M4,5h1v1h-1v-1z" fill="#352e1a" fill-opacity="1.000" fill-rule="evenodd"/><path d="M5,5h1v1h-1v-1z" fill="#37290e" fill-opacity="1.000" fill-rule="evenodd"/><path d="M6,5h1v1h-1v-1z" fill="#373123" fill-opacity="1.000" fill-rule="evenodd"/><path d="M7,5h1v1h-1v-1z" fill="#30220e" fill-opacity="1.000" fill-rule="evenodd"/><path d="M8,5h1v1h-1v-1z" fill="#301d03" fill-opacity="1.000" fill-rule="evenodd"/><path d="M9,5h1v1h-1v-1z" fill="#372910" fill-opacity="1.000" fill-rule="evenodd"/><path d="M10,5h1v1h-1v-1z" fill="#281503" fill-opacity="1.000" fill-rule="evenodd"/><path d="M11,5h1v1h-1v-1z" fill="#d77507" fill-opacity="1.000" fill-rule="evenodd"/><path d="M12,5h1v1h-1v-1z" fill="#d07104" fill-opacity="1.000" fill-rule="evenodd"/><path d="M13,5h1v1h-1v-1z" fill="#d2740e" fill-opacity="1.000" fill-rule="evenodd"/><path d="M14,5h1v1h-1v-1z" fill="#b85300" fill-opacity="1.000" fill-rule="evenodd"/><path d="M15,5h1v1h-1v-1z" fill="#cc7200" fill-opacity="1.000" fill-rule="evenodd"/><path d="M16,5h1v1h-1v-1z" fill="#bb5604" fill-opacity="1.000" fill-rule="evenodd"/><path d="M17,5h1v1h-1v-1z" fill="#c66a00" fill-opacity="1.000" fill-rule="evenodd"/><path d="M18,5h1v1h-1v-1z" fill="#dd7908" fill-opacity="1.000" fill-rule="evenodd"/><path d="M19,5h1v1h-1v-1z" fill="#e4941a" fill-opacity="1.000" fill-rule="evenodd"/><path d="M20,5h1v1h-1v-1z" fill="#2d1d03" fill-opacity="1.000" fill-rule="evenodd"/><path d="M21,5h1v1h-1v-1z" fill="#352a18" fill-opacity="1.000" fill-rule="evenodd"/><path d="M1,6h1v1h-1v-1z" fill="#373122" fill-opacity="1.000" fill-rule="evenodd"/><path d="M2,6h1v1h-1v-1z" fill="#342c1a" fill-opacity="1.000" fill-rule="evenodd"/><path d="M3,6h1v1h-1v-1z" fill="#38352d" fill-opacity="1.000" fill-rule="evenodd"/><path d="M4,6h1v1h-1v-1z" fill="#f8ca73" fill-opacity="1.000" fill-rule="evenodd"/><path d="M5,6h1v1h-1v-1z" fill="#de890d" fill-opacity="1.000" fill-rule="evenodd"/><path d="M6,6h1v1h-1v-1z" fill="#e8a723" fill-opacity="1.000" fill-rule="evenodd"/><path d="M7,6h1v1h-1v-1z" fill="#eca60b" fill-opacity="1.000" fill-rule="evenodd"/><path d="M8,6h1v1h-1v-1z" fill="#e49109" fill-opacity="1.000" fill-rule="evenodd"/><path d="M9,6h1v1h-1v-1z" fill="#ecaf34" fill-opacity="1.000" fill-rule="evenodd"/><path d="M10,6h1v1h-1v-1z" fill="#f2b53f" fill-opacity="1.000" fill-rule="evenodd"/><path d="M11,6h1v1h-1v-1z" fill="#b25808" fill-opacity="1.000" fill-rule="evenodd"/><path d="M12,6h1v1h-1v-1z" fill="#dc8a19" fill-opacity="1.000" fill-rule="evenodd"/><path d="M13,6h1v1h-1v-1z" fill="#bf760a" fill-opacity="1.000" fill-rule="evenodd"/><path d="M14,6h1v1h-1v-1z" fill="#b46702" fill-opacity="1.000" fill-rule="evenodd"/><path d="M15,6h1v1h-1v-1z" fill="#c57306" fill-opacity="1.000" fill-rule="evenodd"/><path d="M16,6h1v1h-1v-1z" fill="#c77304" fill-opacity="1.000" fill-rule="evenodd"/><path d="M17,6h1v1h-1v-1z" fill="#cb8014" fill-opacity="1.000" fill-rule="evenodd"/><path d="M18,6h1v1h-1v-1z" fill="#c97a0c" fill-opacity="1.000" fill-rule="evenodd"/><path d="M19,6h1v1h-1v-1z" fill="#d47400" fill-opacity="1.000" fill-rule="evenodd"/><path d="M20,6h1v1h-1v-1z" fill="#d67d06" fill-opacity="1.000" fill-rule="evenodd"/><path d="M21,6h1v1h-1v-1z" fill="#dd7800" fill-opacity="1.000" fill-rule="evenodd"/><path d="M22,6h1v1h-1v-1z" fill="#2e1808" fill-opacity="1.000" fill-rule="evenodd"/><path d="M23,6h1v1h-1v-1z" fill="#322516" fill-opacity="1.000" fill-rule="evenodd"/><path d="M24,6h1v1h-1v-1z" fill="#291f14" fill-opacity="1.000" fill-rule="evenodd"/><path d="M0,7h1v1h-1v-1z" fill="#353125" fill-opacity="1.000" fill-rule="evenodd"/><path d="M1,7h1v1h-1v-1z" fill="#f8d594" fill-opacity="1.000" fill-rule="evenodd"/><path d="M2,7h1v1h-1v-1z" fill="#ffd876" fill-opacity="1.000" fill-rule="evenodd"/><path d="M3,7h1v1h-1v-1z" fill="#fcd488" fill-opacity="1.000" fill-rule="evenodd"/><path d="M4,7h1v1h-1v-1z" fill="#e28614" fill-opacity="1.000" fill-rule="evenodd"/><path d="M5,7h1v1h-1v-1z" fill="#d16a01" fill-opacity="1.000" fill-rule="evenodd"/><path d="M6,7h1v1h-1v-1z" fill="#e3931e" fill-opacity="1.000" fill-rule="evenodd"/><path d="M7,7h1v1h-1v-1z" fill="#ef9e2f" fill-opacity="1.000" fill-rule="evenodd"/><path d="M8,7h1v1h-1v-1z" fill="#f3a83a" fill-opacity="1.000" fill-rule="evenodd"/><path d="M9,7h1v1h-1v-1z" fill="#da7d01" fill-opacity="1.000" fill-rule="evenodd"/><path d="M10,7h1v1h-1v-1z" fill="#e29e09" fill-opacity="1.000" fill-rule="evenodd"/><path d="M11,7h1v1h-1v-1z" fill="#f1b447" fill-opacity="1.000" fill-rule="evenodd"/><path d="M12,7h1v1h-1v-1z" fill="#f4cd8f" fill-opacity="1.000" fill-rule="evenodd"/><path d="M13,7h1v1h-1v-1z" fill="#eabc76" fill-opacity="1.000" fill-rule="evenodd"/><path d="M14,7h1v1h-1v-1z" fill="#fad192" fill-opacity="1.000" fill-rule="evenodd"/><path d="M15,7h1v1h-1v-1z" fill="#e6b865" fill-opacity="1.000" fill-rule="evenodd"/><path d="M16,7h1v1h-1v-1z" fill="#e7b25b" fill-opacity="1.000" fill-rule="evenodd"/><path d="M17,7h1v1h-1v-1z" fill="#f8d08d" fill-opacity="1.000" fill-rule="evenodd"/><path d="M18,7h1v1h-1v-1z" fill="#eec384" fill-opacity="1.000" fill-rule="evenodd"/><path d="M19,7h1v1h-1v-1z" fill="#fbd297" fill-opacity="1.000" fill-rule="evenodd"/><path d="M20,7h1v1h-1v-1z" fill="#fbd7a6" fill-opacity="1.000" fill-rule="evenodd"/><path d="M21,7h1v1h-1v-1z" fill="#fcdba2" fill-opacity="1.000" fill-rule="evenodd"/><path d="M22,7h1v1h-1v-1z" fill="#f7d485" fill-opacity="1.000" fill-rule="evenodd"/><path d="M23,7h1v1h-1v-1z" fill="#f7d27d" fill-opacity="1.000" fill-rule="evenodd"/><path d="M24,7h1v1h-1v-1z" fill="#f9b845" fill-opacity="1.000" fill-rule="evenodd"/><path d="M25,7h1v1h-1v-1z" fill="#32220c" fill-opacity="1.000" fill-rule="evenodd"/><path d="M1,8h1v1h-1v-1z" fill="#322a1b" fill-opacity="1.000" fill-rule="evenodd"/><path d="M2,8h1v1h-1v-1z" fill="#d87414" fill-opacity="1.000" fill-rule="evenodd"/><path d="M3,8h1v1h-1v-1z" fill="#c45f10" fill-opacity="1.000" fill-rule="evenodd"/><path d="M4,8h1v1h-1v-1z" fill="#ce7203" fill-opacity="1.000" fill-rule="evenodd"/><path d="M5,8h1v1h-1v-1z" fill="#df8625" fill-opacity="1.000" fill-rule="evenodd"/><path d="M6,8h1v1h-1v-1z" fill="#e08820" fill-opacity="1.000" fill-rule="evenodd"/><path d="M7,8h1v1h-1v-1z" fill="#df8909" fill-opacity="1.000" fill-rule="evenodd"/><path d="M8,8h1v1h-1v-1z" fill="#e28e0d" fill-opacity="1.000" fill-rule="evenodd"/><path d="M9,8h1v1h-1v-1z" fill="#c66908" fill-opacity="1.000" fill-rule="evenodd"/><path d="M10,8h1v1h-1v-1z" fill="#cd6c00" fill-opacity="1.000" fill-rule="evenodd"/><path d="M11,8h1v1h-1v-1z" fill="#f4c16a" fill-opacity="1.000" fill-rule="evenodd"/><path d="M12,8h1v1h-1v-1z" fill="#eec37f" fill-opacity="1.000" fill-rule="evenodd"/><path d="M13,8h1v1h-1v-1z" fill="#fbdeb3" fill-opacity="1.000" fill-rule="evenodd"/><path d="M14,8h1v1h-1v-1z" fill="#fbddb2" fill-opacity="1.000" fill-rule="evenodd"/><path d="M15,8h1v1h-1v-1z" fill="#faddaf" fill-opacity="1.000" fill-rule="evenodd"/><path d="M16,8h1v1h-1v-1z" fill="#fcdeaf" fill-opacity="1.000" fill-rule="evenodd"/><path d="M17,8h1v1h-1v-1z" fill="#fce4b7" fill-opacity="1.000" fill-rule="evenodd"/><path d="M18,8h1v1h-1v-1z" fill="#f9d9aa" fill-opacity="1.000" fill-rule="evenodd"/><path d="M19,8h1v1h-1v-1z" fill="#fbdbaa" fill-opacity="1.000" fill-rule="evenodd"/><path d="M20,8h1v1h-1v-1z" fill="#fdd18f" fill-opacity="1.000" fill-rule="evenodd"/><path d="M21,8h1v1h-1v-1z" fill="#f3e1a1" fill-opacity="1.000" fill-rule="evenodd"/><path d="M22,8h1v1h-1v-1z" fill="#fbe294" fill-opacity="1.000" fill-rule="evenodd"/><path d="M23,8h1v1h-1v-1z" fill="#fad26a" fill-opacity="1.000" fill-rule="evenodd"/><path d="M24,8h1v1h-1v-1z" fill="#df9925" fill-opacity="1.000" fill-rule="evenodd"/><path d="M25,8h1v1h-1v-1z" fill="#eb9211" fill-opacity="1.000" fill-rule="evenodd"/><path d="M26,8h1v1h-1v-1z" fill="#372e20" fill-opacity="1.000" fill-rule="evenodd"/><path d="M2,9h1v1h-1v-1z" fill="#332815" fill-opacity="1.000" fill-rule="evenodd"/><path d="M3,9h1v1h-1v-1z" fill="#db8f0e" fill-opacity="1.000" fill-rule="evenodd"/><path d="M4,9h1v1h-1v-1z" fill="#d38710" fill-opacity="1.000" fill-rule="evenodd"/><path d="M5,9h1v1h-1v-1z" fill="#ce760c" fill-opacity="1.000" fill-rule="evenodd"/><path d="M6,9h1v1h-1v-1z" fill="#ba5d07" fill-opacity="1.000" fill-rule="evenodd"/><path d="M7,9h1v1h-1v-1z" fill="#cb6509" fill-opacity="1.000" fill-rule="evenodd"/><path d="M8,9h1v1h-1v-1z" fill="#c6610a" fill-opacity="1.000" fill-rule="evenodd"/><path d="M9,9h1v1h-1v-1z" fill="#9e4b00" fill-opacity="1.000" fill-rule="evenodd"/><path d="M10,9h1v1h-1v-1z" fill="#dc9837" fill-opacity="1.000" fill-rule="evenodd"/><path d="M11,9h1v1h-1v-1z" fill="#e0ad54" fill-opacity="1.000" fill-rule="evenodd"/><path d="M12,9h1v1h-1v-1z" fill="#dfab58" fill-opacity="1.000" fill-rule="evenodd"/><path d="M13,9h1v1h-1v-1z" fill="#ebbe7a" fill-opacity="1.000" fill-rule="evenodd"/><path d="M14,9h1v1h-1v-1z" fill="#fadeac" fill-opacity="1.000" fill-rule="evenodd"/><path d="M15,9h1v1h-1v-1z" fill="#f9ddad" fill-opacity="1.000" fill-rule="evenodd"/><path d="M16,9h1v1h-1v-1z" fill="#f9dba9" fill-opacity="1.000" fill-rule="evenodd"/><path d="M17,9h1v1h-1v-1z" fill="#f7d9a7" fill-opacity="1.000" fill-rule="evenodd"/><path d="M18,9h1v1h-1v-1z" fill="#f5d9a8" fill-opacity="1.000" fill-rule="evenodd"/><path d="M19,9h1v1h-1v-1z" fill="#fcdeb2" fill-opacity="1.000" fill-rule="evenodd"/><path d="M20,9h1v1h-1v-1z" fill="#f3ca7c" fill-opacity="1.000" fill-rule="evenodd"/><path d="M21,9h1v1h-1v-1z" fill="#fee1a3" fill-opacity="1.000" fill-rule="evenodd"/><path d="M22,9h1v1h-1v-1z" fill="#f2d186" fill-opacity="1.000" fill-rule="evenodd"/><path d="M23,9h1v1h-1v-1z" fill="#f6b548" fill-opacity="1.000" fill-rule="evenodd"/><path d="M24,9h1v1h-1v-1z" fill="#fac55b" fill-opacity="1.000" fill-rule="evenodd"/><path d="M25,9h1v1h-1v-1z" fill="#dc7f0a" fill-opacity="1.000" fill-rule="evenodd"/><path d="M26,9h1v1h-1v-1z" fill="#df7408" fill-opacity="1.000" fill-rule="evenodd"/><path d="M27,9h1v1h-1v-1z" fill="#311b05" fill-opacity="1.000" fill-rule="evenodd"/><path d="M2,10h1v1h-1v-1z" fill="#342b23" fill-opacity="1.000" fill-rule="evenodd"/><path d="M3,10h1v1h-1v-1z" fill="#da8b15" fill-opacity="1.000" fill-rule="evenodd"/><path d="M4,10h1v1h-1v-1z" fill="#d6840b" fill-opacity="1.000" fill-rule="evenodd"/><path d="M5,10h1v1h-1v-1z" fill="#b35405" fill-opacity="1.000" fill-rule="evenodd"/><path d="M6,10h1v1h-1v-1z" fill="#ba5808" fill-opacity="1.000" fill-rule="evenodd"/><path d="M7,10h1v1h-1v-1z" fill="#c15e02" fill-opacity="1.000" fill-rule="evenodd"/><path d="M8,10h1v1h-1v-1z" fill="#e09833" fill-opacity="1.000" fill-rule="evenodd"/><path d="M9,10h1v1h-1v-1z" fill="#df9b3a" fill-opacity="1.000" fill-rule="evenodd"/><path d="M10,10h1v1h-1v-1z" fill="#e3ab59" fill-opacity="1.000" fill-rule="evenodd"/><path d="M11,10h1v1h-1v-1z" fill="#dfa856" fill-opacity="1.000" fill-rule="evenodd"/><path d="M12,10h1v1h-1v-1z" fill="#e7b15c" fill-opacity="1.000" fill-rule="evenodd"/><path d="M13,10h1v1h-1v-1z" fill="#fae5c0" fill-opacity="1.000" fill-rule="evenodd"/><path d="M14,10h1v1h-1v-1z" fill="#f6d898" fill-opacity="1.000" fill-rule="evenodd"/><path d="M15,10h1v1h-1v-1z" fill="#f5cf88" fill-opacity="1.000" fill-rule="evenodd"/><path d="M16,10h1v1h-1v-1z" fill="#f0c171" fill-opacity="1.000" fill-rule="evenodd"/><path d="M17,10h1v1h-1v-1z" fill="#efc16e" fill-opacity="1.000" fill-rule="evenodd"/><path d="M18,10h1v1h-1v-1z" fill="#f0c475" fill-opacity="1.000" fill-rule="evenodd"/><path d="M19,10h1v1h-1v-1z" fill="#f4cb83" fill-opacity="1.000" fill-rule="evenodd"/><path d="M20,10h1v1h-1v-1z" fill="#e6b353" fill-opacity="1.000" fill-rule="evenodd"/><path d="M21,10h1v1h-1v-1z" fill="#ebce7c" fill-opacity="1.000" fill-rule="evenodd"/><path d="M22,10h1v1h-1v-1z" fill="#fbd276" fill-opacity="1.000" fill-rule="evenodd"/><path d="M23,10h1v1h-1v-1z" fill="#ec9a26" fill-opacity="1.000" fill-rule="evenodd"/><path d="M24,10h1v1h-1v-1z" fill="#d55309" fill-opacity="1.000" fill-rule="evenodd"/><path d="M25,10h1v1h-1v-1z" fill="#d5730d" fill-opacity="1.000" fill-rule="evenodd"/><path d="M26,10h1v1h-1v-1z" fill="#c8520d" fill-opacity="1.000" fill-rule="evenodd"/><path d="M27,10h1v1h-1v-1z" fill="#321d07" fill-opacity="1.000" fill-rule="evenodd"/><path d="M2,11h1v1h-1v-1z" fill="#352f28" fill-opacity="1.000" fill-rule="evenodd"/><path d="M3,11h1v1h-1v-1z" fill="#fbe6d1" fill-opacity="1.000" fill-rule="evenodd"/><path d="M4,11h1v1h-1v-1z" fill="#e0ac50" fill-opacity="1.000" fill-rule="evenodd"/><path d="M5,11h1v1h-1v-1z" fill="#d18013" fill-opacity="1.000" fill-rule="evenodd"/><path d="M6,11h1v1h-1v-1z" fill="#ac5200" fill-opacity="1.000" fill-rule="evenodd"/><path d="M7,11h1v1h-1v-1z" fill="#d98e29" fill-opacity="1.000" fill-rule="evenodd"/><path d="M8,11h1v1h-1v-1z" fill="#e5ad5a" fill-opacity="1.000" fill-rule="evenodd"/><path d="M9,11h1v1h-1v-1z" fill="#e4ac59" fill-opacity="1.000" fill-rule="evenodd"/><path d="M10,11h1v1h-1v-1z" fill="#e1a857" fill-opacity="1.000" fill-rule="evenodd"/><path d="M11,11h1v1h-1v-1z" fill="#e0a853" fill-opacity="1.000" fill-rule="evenodd"/><path d="M12,11h1v1h-1v-1z" fill="#e8b76a" fill-opacity="1.000" fill-rule="evenodd"/><path d="M13,11h1v1h-1v-1z" fill="#fde0a3" fill-opacity="1.000" fill-rule="evenodd"/><path d="M14,11h1v1h-1v-1z" fill="#fde7b7" fill-opacity="1.000" fill-rule="evenodd"/><path d="M15,11h1v1h-1v-1z" fill="#fef2dc" fill-opacity="1.000" fill-rule="evenodd"/><path d="M16,11h1v1h-1v-1z" fill="#fceac2" fill-opacity="1.000" fill-rule="evenodd"/><path d="M17,11h1v1h-1v-1z" fill="#fcdaa1" fill-opacity="1.000" fill-rule="evenodd"/><path d="M18,11h1v1h-1v-1z" fill="#edcc7f" fill-opacity="1.000" fill-rule="evenodd"/><path d="M19,11h1v1h-1v-1z" fill="#f9d29a" fill-opacity="1.000" fill-rule="evenodd"/><path d="M20,11h1v1h-1v-1z" fill="#f2bf67" fill-opacity="1.000" fill-rule="evenodd"/><path d="M21,11h1v1h-1v-1z" fill="#c78310" fill-opacity="1.000" fill-rule="evenodd"/><path d="M22,11h1v1h-1v-1z" fill="#ecb850" fill-opacity="1.000" fill-rule="evenodd"/><path d="M23,11h1v1h-1v-1z" fill="#dc8301" fill-opacity="1.000" fill-rule="evenodd"/><path d="M24,11h1v1h-1v-1z" fill="#faaa3e" fill-opacity="1.000" fill-rule="evenodd"/><path d="M25,11h1v1h-1v-1z" fill="#e99830" fill-opacity="1.000" fill-rule="evenodd"/><path d="M26,11h1v1h-1v-1z" fill="#c15f07" fill-opacity="1.000" fill-rule="evenodd"/><path d="M27,11h1v1h-1v-1z" fill="#e38418" fill-opacity="1.000" fill-rule="evenodd"/><path d="M28,11h1v1h-1v-1z" fill="#301b03" fill-opacity="1.000" fill-rule="evenodd"/><path d="M2,12h1v1h-1v-1z" fill="#302821" fill-opacity="1.000" fill-rule="evenodd"/><path d="M3,12h1v1h-1v-1z" fill="#db8944" fill-opacity="1.000" fill-rule="evenodd"/><path d="M4,12h1v1h-1v-1z" fill="#fdf6df" fill-opacity="1.000" fill-rule="evenodd"/><path d="M5,12h1v1h-1v-1z" fill="#d6670c" fill-opacity="1.000" fill-rule="evenodd"/><path d="M6,12h1v1h-1v-1z" fill="#b76200" fill-opacity="1.000" fill-rule="evenodd"/><path d="M7,12h1v1h-1v-1z" fill="#e5ae5c" fill-opacity="1.000" fill-rule="evenodd"/><path d="M8,12h1v1h-1v-1z" fill="#ebab56" fill-opacity="1.000" fill-rule="evenodd"/><path d="M9,12h1v1h-1v-1z" fill="#edb05e" fill-opacity="1.000" fill-rule="evenodd"/><path d="M10,12h1v1h-1v-1z" fill="#e8b25a" fill-opacity="1.000" fill-rule="evenodd"/><path d="M11,12h1v1h-1v-1z" fill="#f2c570" fill-opacity="1.000" fill-rule="evenodd"/><path d="M12,12h1v1h-1v-1z" fill="#fad89a" fill-opacity="1.000" fill-rule="evenodd"/><path d="M13,12h1v1h-1v-1z" fill="#ffeed6" fill-opacity="1.000" fill-rule="evenodd"/><path d="M14,12h1v1h-1v-1z" fill="#fff4ea" fill-opacity="1.000" fill-rule="evenodd"/><path d="M15,12h1v1h-1v-1z" fill="#fdeacf" fill-opacity="1.000" fill-rule="evenodd"/><path d="M16,12h1v1h-1v-1z" fill="#fce4b4" fill-opacity="1.000" fill-rule="evenodd"/><path d="M17,12h1v1h-1v-1z" fill="#fedeab" fill-opacity="1.000" fill-rule="evenodd"/><path d="M18,12h1v1h-1v-1z" fill="#f8d8a3" fill-opacity="1.000" fill-rule="evenodd"/><path d="M19,12h1v1h-1v-1z" fill="#e6b366" fill-opacity="1.000" fill-rule="evenodd"/><path d="M20,12h1v1h-1v-1z" fill="#f1bf58" fill-opacity="1.000" fill-rule="evenodd"/><path d="M21,12h1v1h-1v-1z" fill="#fed77d" fill-opacity="1.000" fill-rule="evenodd"/><path d="M22,12h1v1h-1v-1z" fill="#e6a71b" fill-opacity="1.000" fill-rule="evenodd"/><path d="M23,12h1v1h-1v-1z" fill="#f09607" fill-opacity="1.000" fill-rule="evenodd"/><path d="M24,12h1v1h-1v-1z" fill="#e07e02" fill-opacity="1.000" fill-rule="evenodd"/><path d="M25,12h1v1h-1v-1z" fill="#d97305" fill-opacity="1.000" fill-rule="evenodd"/><path d="M26,12h1v1h-1v-1z" fill="#d0761c" fill-opacity="1.000" fill-rule="evenodd"/><path d="M27,12h1v1h-1v-1z" fill="#2c1902" fill-opacity="1.000" fill-rule="evenodd"/><path d="M28,12h1v1h-1v-1z" fill="#2c1502" fill-opacity="1.000" fill-rule="evenodd"/><path d="M29,12h1v1h-1v-1z" fill="#331e0a" fill-opacity="1.000" fill-rule="evenodd"/><path d="M3,13h1v1h-1v-1z" fill="#37312a" fill-opacity="1.000" fill-rule="evenodd"/><path d="M4,13h1v1h-1v-1z" fill="#dfc19d" fill-opacity="1.000" fill-rule="evenodd"/><path d="M5,13h1v1h-1v-1z" fill="#cb9e74" fill-opacity="1.000" fill-rule="evenodd"/><path d="M6,13h1v1h-1v-1z" fill="#d38c33" fill-opacity="1.000" fill-rule="evenodd"/><path d="M7,13h1v1h-1v-1z" fill="#e09334" fill-opacity="1.000" fill-rule="evenodd"/><path d="M8,13h1v1h-1v-1z" fill="#faca77" fill-opacity="1.000" fill-rule="evenodd"/><path d="M9,13h1v1h-1v-1z" fill="#e5aa30" fill-opacity="1.000" fill-rule="evenodd"/><path d="M10,13h1v1h-1v-1z" fill="#f2af31" fill-opacity="1.000" fill-rule="evenodd"/><path d="M11,13h1v1h-1v-1z" fill="#f0a515" fill-opacity="1.000" fill-rule="evenodd"/><path d="M12,13h1v1h-1v-1z" fill="#eca529" fill-opacity="1.000" fill-rule="evenodd"/><path d="M13,13h1v1h-1v-1z" fill="#facf71" fill-opacity="1.000" fill-rule="evenodd"/><path d="M14,13h1v1h-1v-1z" fill="#f3cd90" fill-opacity="1.000" fill-rule="evenodd"/><path d="M15,13h1v1h-1v-1z" fill="#fdd799" fill-opacity="1.000" fill-rule="evenodd"/><path d="M16,13h1v1h-1v-1z" fill="#f8d097" fill-opacity="1.000" fill-rule="evenodd"/><path d="M17,13h1v1h-1v-1z" fill="#fadcad" fill-opacity="1.000" fill-rule="evenodd"/><path d="M18,13h1v1h-1v-1z" fill="#fbe2ab" fill-opacity="1.000" fill-rule="evenodd"/><path d="M19,13h1v1h-1v-1z" fill="#efa63c" fill-opacity="1.000" fill-rule="evenodd"/><path d="M20,13h1v1h-1v-1z" fill="#e09307" fill-opacity="1.000" fill-rule="evenodd"/><path d="M21,13h1v1h-1v-1z" fill="#d57a1e" fill-opacity="1.000" fill-rule="evenodd"/><path d="M22,13h1v1h-1v-1z" fill="#e36708" fill-opacity="1.000" fill-rule="evenodd"/><path d="M23,13h1v1h-1v-1z" fill="#d8600f" fill-opacity="1.000" fill-rule="evenodd"/><path d="M24,13h1v1h-1v-1z" fill="#cd5719" fill-opacity="1.000" fill-rule="evenodd"/><path d="M25,13h1v1h-1v-1z" fill="#e07416" fill-opacity="1.000" fill-rule="evenodd"/><path d="M26,13h1v1h-1v-1z" fill="#35302c" fill-opacity="1.000" fill-rule="evenodd"/><path d="M3,14h1v1h-1v-1z" fill="#362e26" fill-opacity="1.000" fill-rule="evenodd"/><path d="M4,14h1v1h-1v-1z" fill="#fad6bd" fill-opacity="1.000" fill-rule="evenodd"/><path d="M5,14h1v1h-1v-1z" fill="#f8ddca" fill-opacity="1.000" fill-rule="evenodd"/><path d="M6,14h1v1h-1v-1z" fill="#ffc292" fill-opacity="1.000" fill-rule="evenodd"/><path d="M7,14h1v1h-1v-1z" fill="#e1ba79" fill-opacity="1.000" fill-rule="evenodd"/><path d="M8,14h1v1h-1v-1z" fill="#d8bd73" fill-opacity="1.000" fill-rule="evenodd"/><path d="M9,14h1v1h-1v-1z" fill="#f9c350" fill-opacity="1.000" fill-rule="evenodd"/><path d="M10,14h1v1h-1v-1z" fill="#edad37" fill-opacity="1.000" fill-rule="evenodd"/><path d="M11,14h1v1h-1v-1z" fill="#fec24d" fill-opacity="1.000" fill-rule="evenodd"/><path d="M12,14h1v1h-1v-1z" fill="#de9e1d" fill-opacity="1.000" fill-rule="evenodd"/><path d="M13,14h1v1h-1v-1z" fill="#ecc363" fill-opacity="1.000" fill-rule="evenodd"/><path d="M14,14h1v1h-1v-1z" fill="#fabd47" fill-opacity="1.000" fill-rule="evenodd"/><path d="M15,14h1v1h-1v-1z" fill="#fedc87" fill-opacity="1.000" fill-rule="evenodd"/><path d="M16,14h1v1h-1v-1z" fill="#fcc551" fill-opacity="1.000" fill-rule="evenodd"/><path d="M17,14h1v1h-1v-1z" fill="#e7ab36" fill-opacity="1.000" fill-rule="evenodd"/><path d="M18,14h1v1h-1v-1z" fill="#e5850b" fill-opacity="1.000" fill-rule="evenodd"/><path d="M19,14h1v1h-1v-1z" fill="#e0971a" fill-opacity="1.000" fill-rule="evenodd"/><path d="M20,14h1v1h-1v-1z" fill="#ca5808" fill-opacity="1.000" fill-rule="evenodd"/><path d="M21,14h1v1h-1v-1z" fill="#fcc489" fill-opacity="1.000" fill-rule="evenodd"/><path d="M22,14h1v1h-1v-1z" fill="#c37628" fill-opacity="1.000" fill-rule="evenodd"/><path d="M23,14h1v1h-1v-1z" fill="#c56b19" fill-opacity="1.000" fill-rule="evenodd"/><path d="M24,14h1v1h-1v-1z" fill="#fcddc0" fill-opacity="1.000" fill-rule="evenodd"/><path d="M25,14h1v1h-1v-1z" fill="#f3d5bc" fill-opacity="1.000" fill-rule="evenodd"/><path d="M26,14h1v1h-1v-1z" fill="#352f2b" fill-opacity="1.000" fill-rule="evenodd"/><path d="M3,15h1v1h-1v-1z" fill="#352c23" fill-opacity="1.000" fill-rule="evenodd"/><path d="M4,15h1v1h-1v-1z" fill="#eccaa3" fill-opacity="1.000" fill-rule="evenodd"/><path d="M5,15h1v1h-1v-1z" fill="#f2ceaf" fill-opacity="1.000" fill-rule="evenodd"/><path d="M6,15h1v1h-1v-1z" fill="#ebc8a7" fill-opacity="1.000" fill-rule="evenodd"/><path d="M7,15h1v1h-1v-1z" fill="#dfcba5" fill-opacity="1.000" fill-rule="evenodd"/><path d="M8,15h1v1h-1v-1z" fill="#eac46e" fill-opacity="1.000" fill-rule="evenodd"/><path d="M9,15h1v1h-1v-1z" fill="#f3c171" fill-opacity="1.000" fill-rule="evenodd"/><path d="M10,15h1v1h-1v-1z" fill="#f9b550" fill-opacity="1.000" fill-rule="evenodd"/><path d="M11,15h1v1h-1v-1z" fill="#e9901c" fill-opacity="1.000" fill-rule="evenodd"/><path d="M12,15h1v1h-1v-1z" fill="#f0a82f" fill-opacity="1.000" fill-rule="evenodd"/><path d="M13,15h1v1h-1v-1z" fill="#f8ab3a" fill-opacity="1.000" fill-rule="evenodd"/><path d="M14,15h1v1h-1v-1z" fill="#eba625" fill-opacity="1.000" fill-rule="evenodd"/><path d="M15,15h1v1h-1v-1z" fill="#fcdb83" fill-opacity="1.000" fill-rule="evenodd"/><path d="M16,15h1v1h-1v-1z" fill="#c8780d" fill-opacity="1.000" fill-rule="evenodd"/><path d="M17,15h1v1h-1v-1z" fill="#d46306" fill-opacity="1.000" fill-rule="evenodd"/><path d="M18,15h1v1h-1v-1z" fill="#cb5d07" fill-opacity="1.000" fill-rule="evenodd"/><path d="M19,15h1v1h-1v-1z" fill="#b73b03" fill-opacity="1.000" fill-rule="evenodd"/><path d="M20,15h1v1h-1v-1z" fill="#b9450b" fill-opacity="1.000" fill-rule="evenodd"/><path d="M21,15h1v1h-1v-1z" fill="#f4c798" fill-opacity="1.000" fill-rule="evenodd"/><path d="M22,15h1v1h-1v-1z" fill="#d7a57b" fill-opacity="1.000" fill-rule="evenodd"/><path d="M23,15h1v1h-1v-1z" fill="#dbaf83" fill-opacity="1.000" fill-rule="evenodd"/><path d="M24,15h1v1h-1v-1z" fill="#e8c19d" fill-opacity="1.000" fill-rule="evenodd"/><path d="M25,15h1v1h-1v-1z" fill="#f4d9c9" fill-opacity="1.000" fill-rule="evenodd"/><path d="M26,15h1v1h-1v-1z" fill="#342d29" fill-opacity="1.000" fill-rule="evenodd"/><path d="M3,16h1v1h-1v-1zM3,18h1v1h-1v-1z" fill="#332b21" fill-opacity="1.000" fill-rule="evenodd"/><path d="M4,16h1v1h-1v-1z" fill="#e9c299" fill-opacity="1.000" fill-rule="evenodd"/><path d="M5,16h1v1h-1v-1z" fill="#e8c59f" fill-opacity="1.000" fill-rule="evenodd"/><path d="M6,16h1v1h-1v-1z" fill="#e8c39f" fill-opacity="1.000" fill-rule="evenodd"/><path d="M7,16h1v1h-1v-1z" fill="#d4a776" fill-opacity="1.000" fill-rule="evenodd"/><path d="M8,16h1v1h-1v-1z" fill="#c88b40" fill-opacity="1.000" fill-rule="evenodd"/><path d="M9,16h1v1h-1v-1z" fill="#f8db95" fill-opacity="1.000" fill-rule="evenodd"/><path d="M10,16h1v1h-1v-1z" fill="#ebbc5c" fill-opacity="1.000" fill-rule="evenodd"/><path d="M11,16h1v1h-1v-1z" fill="#ecac40" fill-opacity="1.000" fill-rule="evenodd"/><path d="M12,16h1v1h-1v-1z" fill="#e49f24" fill-opacity="1.000" fill-rule="evenodd"/><path d="M13,16h1v1h-1v-1z" fill="#eba334" fill-opacity="1.000" fill-rule="evenodd"/><path d="M14,16h1v1h-1v-1z" fill="#f2b646" fill-opacity="1.000" fill-rule="evenodd"/><path d="M15,16h1v1h-1v-1z" fill="#f4aa34" fill-opacity="1.000" fill-rule="evenodd"/><path d="M16,16h1v1h-1v-1z" fill="#cd6f17" fill-opacity="1.000" fill-rule="evenodd"/><path d="M17,16h1v1h-1v-1z" fill="#d4904b" fill-opacity="1.000" fill-rule="evenodd"/><path d="M18,16h1v1h-1v-1z" fill="#c38f4a" fill-opacity="1.000" fill-rule="evenodd"/><path d="M19,16h1v1h-1v-1z" fill="#d29147" fill-opacity="1.000" fill-rule="evenodd"/><path d="M20,16h1v1h-1v-1z" fill="#d59857" fill-opacity="1.000" fill-rule="evenodd"/><path d="M21,16h1v1h-1v-1z" fill="#dba064" fill-opacity="1.000" fill-rule="evenodd"/><path d="M22,16h1v1h-1v-1z" fill="#ddaa73" fill-opacity="1.000" fill-rule="evenodd"/><path d="M23,16h1v1h-1v-1z" fill="#e3b386" fill-opacity="1.000" fill-rule="evenodd"/><path d="M24,16h1v1h-1v-1z" fill="#e7bd9d" fill-opacity="1.000" fill-rule="evenodd"/><path d="M25,16h1v1h-1v-1z" fill="#f2d6c2" fill-opacity="1.000" fill-rule="evenodd"/><path d="M26,16h1v1h-1v-1z" fill="#332c28" fill-opacity="1.000" fill-rule="evenodd"/><path d="M3,17h1v1h-1v-1z" fill="#332a1f" fill-opacity="1.000" fill-rule="evenodd"/><path d="M4,17h1v1h-1v-1z" fill="#e8bf93" fill-opacity="1.000" fill-rule="evenodd"/><path d="M5,17h1v1h-1v-1z" fill="#e2bc97" fill-opacity="1.000" fill-rule="evenodd"/><path d="M6,17h1v1h-1v-1z" fill="#e3b990" fill-opacity="1.000" fill-rule="evenodd"/><path d="M7,17h1v1h-1v-1z" fill="#d6a876" fill-opacity="1.000" fill-rule="evenodd"/><path d="M8,17h1v1h-1v-1z" fill="#ca9c62" fill-opacity="1.000" fill-rule="evenodd"/><path d="M9,17h1v1h-1v-1z" fill="#e4c174" fill-opacity="1.000" fill-rule="evenodd"/><path d="M10,17h1v1h-1v-1z" fill="#e5b96c" fill-opacity="1.000" fill-rule="evenodd"/><path d="M11,17h1v1h-1v-1z" fill="#e5b363" fill-opacity="1.000" fill-rule="evenodd"/><path d="M12,17h1v1h-1v-1z" fill="#f4b139" fill-opacity="1.000" fill-rule="evenodd"/><path d="M13,17h1v1h-1v-1z" fill="#e99f1c" fill-opacity="1.000" fill-rule="evenodd"/><path d="M14,17h1v1h-1v-1z" fill="#d9801d" fill-opacity="1.000" fill-rule="evenodd"/><path d="M15,17h1v1h-1v-1z" fill="#a74911" fill-opacity="1.000" fill-rule="evenodd"/><path d="M16,17h1v1h-1v-1z" fill="#c78330" fill-opacity="1.000" fill-rule="evenodd"/><path d="M17,17h1v1h-1v-1z" fill="#cf8c3d" fill-opacity="1.000" fill-rule="evenodd"/><path d="M18,17h1v1h-1v-1z" fill="#d08f3f" fill-opacity="1.000" fill-rule="evenodd"/><path d="M19,17h1v1h-1v-1z" fill="#d4954c" fill-opacity="1.000" fill-rule="evenodd"/><path d="M20,17h1v1h-1v-1z" fill="#d99959" fill-opacity="1.000" fill-rule="evenodd"/><path d="M21,17h1v1h-1v-1z" fill="#d5a165" fill-opacity="1.000" fill-rule="evenodd"/><path d="M22,17h1v1h-1v-1z" fill="#dfaa75" fill-opacity="1.000" fill-rule="evenodd"/><path d="M23,17h1v1h-1v-1z" fill="#e2b689" fill-opacity="1.000" fill-rule="evenodd"/><path d="M24,17h1v1h-1v-1z" fill="#e7c5a5" fill-opacity="1.000" fill-rule="evenodd"/><path d="M25,17h1v1h-1v-1z" fill="#f3d6c5" fill-opacity="1.000" fill-rule="evenodd"/><path d="M26,17h1v1h-1v-1z" fill="#342e29" fill-opacity="1.000" fill-rule="evenodd"/><path d="M4,18h1v1h-1v-1z" fill="#e4be91" fill-opacity="1.000" fill-rule="evenodd"/><path d="M5,18h1v1h-1v-1z" fill="#e5c29a" fill-opacity="1.000" fill-rule="evenodd"/><path d="M6,18h1v1h-1v-1z" fill="#e4bc9a" fill-opacity="1.000" fill-rule="evenodd"/><path d="M7,18h1v1h-1v-1z" fill="#d6ab78" fill-opacity="1.000" fill-rule="evenodd"/><path d="M8,18h1v1h-1v-1z" fill="#ce9f66" fill-opacity="1.000" fill-rule="evenodd"/><path d="M9,18h1v1h-1v-1z" fill="#cd9e61" fill-opacity="1.000" fill-rule="evenodd"/><path d="M10,18h1v1h-1v-1z" fill="#f4d28d" fill-opacity="1.000" fill-rule="evenodd"/><path d="M11,18h1v1h-1v-1z" fill="#f9cc76" fill-opacity="1.000" fill-rule="evenodd"/><path d="M12,18h1v1h-1v-1z" fill="#dc9107" fill-opacity="1.000" fill-rule="evenodd"/><path d="M13,18h1v1h-1v-1z" fill="#d5681f" fill-opacity="1.000" fill-rule="evenodd"/><path d="M14,18h1v1h-1v-1z" fill="#a3461d" fill-opacity="1.000" fill-rule="evenodd"/><path d="M15,18h1v1h-1v-1z" fill="#c47f2e" fill-opacity="1.000" fill-rule="evenodd"/><path d="M16,18h1v1h-1v-1z" fill="#cc8a3c" fill-opacity="1.000" fill-rule="evenodd"/><path d="M17,18h1v1h-1v-1z" fill="#d19142" fill-opacity="1.000" fill-rule="evenodd"/><path d="M18,18h1v1h-1v-1z" fill="#d19243" fill-opacity="1.000" fill-rule="evenodd"/><path d="M19,18h1v1h-1v-1z" fill="#d59950" fill-opacity="1.000" fill-rule="evenodd"/><path d="M20,18h1v1h-1v-1z" fill="#d99d5e" fill-opacity="1.000" fill-rule="evenodd"/><path d="M21,18h1v1h-1v-1z" fill="#daa86c" fill-opacity="1.000" fill-rule="evenodd"/><path d="M22,18h1v1h-1v-1z" fill="#e1ae7e" fill-opacity="1.000" fill-rule="evenodd"/><path d="M23,18h1v1h-1v-1z" fill="#e9b992" fill-opacity="1.000" fill-rule="evenodd"/><path d="M24,18h1v1h-1v-1z" fill="#eccdb0" fill-opacity="1.000" fill-rule="evenodd"/><path d="M25,18h1v1h-1v-1z" fill="#35312c" fill-opacity="1.000" fill-rule="evenodd"/><path d="M4,19h1v1h-1v-1z" fill="#332c22" fill-opacity="1.000" fill-rule="evenodd"/><path d="M5,19h1v1h-1v-1z" fill="#332b22" fill-opacity="1.000" fill-rule="evenodd"/><path d="M6,19h1v1h-1v-1z" fill="#e4c398" fill-opacity="1.000" fill-rule="evenodd"/><path d="M7,19h1v1h-1v-1z" fill="#dbb587" fill-opacity="1.000" fill-rule="evenodd"/><path d="M8,19h1v1h-1v-1z" fill="#d7ad78" fill-opacity="1.000" fill-rule="evenodd"/><path d="M9,19h1v1h-1v-1z" fill="#d2a875" fill-opacity="1.000" fill-rule="evenodd"/><path d="M10,19h1v1h-1v-1z" fill="#f1c064" fill-opacity="1.000" fill-rule="evenodd"/><path d="M11,19h1v1h-1v-1z" fill="#e39219" fill-opacity="1.000" fill-rule="evenodd"/><path d="M12,19h1v1h-1v-1z" fill="#d98d35" fill-opacity="1.000" fill-rule="evenodd"/><path d="M13,19h1v1h-1v-1z" fill="#b05327" fill-opacity="1.000" fill-rule="evenodd"/><path d="M14,19h1v1h-1v-1z" fill="#c87c2c" fill-opacity="1.000" fill-rule="evenodd"/><path d="M15,19h1v1h-1v-1z" fill="#ce9041" fill-opacity="1.000" fill-rule="evenodd"/><path d="M16,19h1v1h-1v-1z" fill="#ce9141" fill-opacity="1.000" fill-rule="evenodd"/><path d="M17,19h1v1h-1v-1z" fill="#d09548" fill-opacity="1.000" fill-rule="evenodd"/><path d="M18,19h1v1h-1v-1z" fill="#d2984c" fill-opacity="1.000" fill-rule="evenodd"/><path d="M19,19h1v1h-1v-1z" fill="#d79f5b" fill-opacity="1.000" fill-rule="evenodd"/><path d="M20,19h1v1h-1v-1z" fill="#dba569" fill-opacity="1.000" fill-rule="evenodd"/><path d="M21,19h1v1h-1v-1z" fill="#e2af79" fill-opacity="1.000" fill-rule="evenodd"/><path d="M22,19h1v1h-1v-1z" fill="#e8ba89" fill-opacity="1.000" fill-rule="evenodd"/><path d="M23,19h1v1h-1v-1z" fill="#ecc39a" fill-opacity="1.000" fill-rule="evenodd"/><path d="M24,19h1v1h-1v-1z" fill="#342e27" fill-opacity="1.000" fill-rule="evenodd"/><path d="M6,20h1v1h-1v-1z" fill="#332b23" fill-opacity="1.000" fill-rule="evenodd"/><path d="M7,20h1v1h-1v-1zM21,21h1v1h-1v-1z" fill="#31291f" fill-opacity="1.000" fill-rule="evenodd"/><path d="M8,20h1v1h-1v-1z" fill="#dab485" fill-opacity="1.000" fill-rule="evenodd"/><path d="M9,20h1v1h-1v-1z" fill="#d8af7b" fill-opacity="1.000" fill-rule="evenodd"/><path d="M10,20h1v1h-1v-1z" fill="#e0ac66" fill-opacity="1.000" fill-rule="evenodd"/><path d="M11,20h1v1h-1v-1z" fill="#d48c3a" fill-opacity="1.000" fill-rule="evenodd"/><path d="M12,20h1v1h-1v-1z" fill="#b76726" fill-opacity="1.000" fill-rule="evenodd"/><path d="M13,20h1v1h-1v-1z" fill="#cd974f" fill-opacity="1.000" fill-rule="evenodd"/><path d="M14,20h1v1h-1v-1z" fill="#d09d5b" fill-opacity="1.000" fill-rule="evenodd"/><path d="M15,20h1v1h-1v-1z" fill="#d59e5b" fill-opacity="1.000" fill-rule="evenodd"/><path d="M16,20h1v1h-1v-1z" fill="#d69f5c" fill-opacity="1.000" fill-rule="evenodd"/><path d="M17,20h1v1h-1v-1z" fill="#dda964" fill-opacity="1.000" fill-rule="evenodd"/><path d="M18,20h1v1h-1v-1z" fill="#ddab66" fill-opacity="1.000" fill-rule="evenodd"/><path d="M19,20h1v1h-1v-1z" fill="#e3b174" fill-opacity="1.000" fill-rule="evenodd"/><path d="M20,20h1v1h-1v-1z" fill="#e4b67a" fill-opacity="1.000" fill-rule="evenodd"/><path d="M21,20h1v1h-1v-1z" fill="#e7be8a" fill-opacity="1.000" fill-rule="evenodd"/><path d="M22,20h1v1h-1v-1z" fill="#322a1f" fill-opacity="1.000" fill-rule="evenodd"/><path d="M23,20h1v1h-1v-1z" fill="#342c23" fill-opacity="1.000" fill-rule="evenodd"/><path d="M8,21h1v1h-1v-1z" fill="#1f170e" fill-opacity="1.000" fill-rule="evenodd"/><path d="M9,21h1v1h-1v-1z" fill="#30281d" fill-opacity="1.000" fill-rule="evenodd"/><path d="M10,21h1v1h-1v-1z" fill="#30261a" fill-opacity="1.000" fill-rule="evenodd"/><path d="M11,21h1v1h-1v-1z" fill="#2f2519" fill-opacity="1.000" fill-rule="evenodd"/><path d="M12,21h1v1h-1v-1z" fill="#d6aa6e" fill-opacity="1.000" fill-rule="evenodd"/><path d="M13,21h1v1h-1v-1z" fill="#d7a96d" fill-opacity="1.000" fill-rule="evenodd"/><path d="M14,21h1v1h-1v-1z" fill="#d4a668" fill-opacity="1.000" fill-rule="evenodd"/><path d="M15,21h1v1h-1v-1z" fill="#d7a664" fill-opacity="1.000" fill-rule="evenodd"/><path d="M16,21h1v1h-1v-1z" fill="#d8a765" fill-opacity="1.000" fill-rule="evenodd"/><path d="M17,21h1v1h-1v-1z" fill="#dcaa68" fill-opacity="1.000" fill-rule="evenodd"/><path d="M18,21h1v1h-1v-1z" fill="#312618" fill-opacity="1.000" fill-rule="evenodd"/><path d="M19,21h1v1h-1v-1z" fill="#31271a" fill-opacity="1.000" fill-rule="evenodd"/><path d="M20,21h1v1h-1v-1z" fill="#32291e" fill-opacity="1.000" fill-rule="evenodd"/><path d="M12,22h1v1h-1v-1z" fill="#2f261d" fill-opacity="1.000" fill-rule="evenodd"/><path d="M13,22h1v1h-1v-1z" fill="#2f271d" fill-opacity="1.000" fill-rule="evenodd"/><path d="M14,22h1v1h-1v-1z" fill="#2f271c" fill-opacity="1.000" fill-rule="evenodd"/><path d="M15,22h1v1h-1v-1z" fill="#2f261b" fill-opacity="1.000" fill-rule="evenodd"/><path d="M16,22h1v1h-1v-1z" fill="#2e261b" fill-opacity="1.000" fill-rule="evenodd"/><path d="M17,22h1v1h-1v-1z" fill="#2a231a" fill-opacity="1.000" fill-rule="evenodd"/></svg>